<svg t="1774581565574" class="icon" viewBox="0 0 1024 1024" version="1.1"
  xmlns="http://www.w3.org/2000/svg" p-id="22945" width="32" height="32">
  <path
    d="M416.44032 132.87424a191.16032 191.16032 0 0 1 191.11936 0l167.23968 96.54272a191.0784 191.0784 0 0 1 74.79296 78.848 27.32032 27.32032 0 0 1-48.66048 24.7808 136.43776 136.43776 0 0 0-53.41184-56.32l-167.23968-96.54272a136.51968 136.51968 0 0 0-136.56064 0L276.48 276.72576a136.51968 136.51968 0 0 0-68.23936 118.25152v193.08544c0 48.78336 26.0096 93.88032 68.23936 118.25152l102.8096 59.35104a27.32032 27.32032 0 1 1-27.32032 47.3088l-102.8096-59.392a191.16032 191.16032 0 0 1-95.55968-165.4784V394.93632c0-68.32128 36.4544-131.39968 95.60064-165.56032l167.23968-96.54272zM923.56608 563.6096a89.74336 89.74336 0 0 1 0 126.976L733.184 880.88576a121.0368 121.0368 0 0 1-87.32672 35.4304l-63.20128-0.94208a58.49088 58.49088 0 0 1-57.67168-57.63072l-0.90112-63.24224c-0.49152-32.68608 12.288-64.18432 35.4304-87.32672l190.34112-190.34112a89.74336 89.74336 0 0 1 126.976 0l46.6944 46.73536z m-38.5024 38.5024l-46.77632-46.6944a35.26656 35.26656 0 0 0-49.88928 0L598.016 745.71776c-12.6976 12.6976-19.74272 30.02368-19.49696 48.00512l0.90112 63.24224c0.04096 2.17088 1.80224 3.93216 3.97312 3.93216l63.24224 0.94208c17.98144 0.24576 35.26656-6.7584 48.00512-19.49696l190.34112-190.34112a35.26656 35.26656 0 0 0 0-49.88928z"
    fill="#000000" p-id="22946"></path>
  <path
    d="M675.84 382.27968a27.32032 27.32032 0 0 1 0 54.64064H348.16a27.32032 27.32032 0 0 1 0-54.64064h327.68zM512 546.11968a27.32032 27.32032 0 0 1 0 54.64064H348.16a27.32032 27.32032 0 0 1 0-54.64064h163.84z"
    fill="#000000" p-id="22947"></path>
</svg>