<svg t="1774581499266" class="icon" viewBox="0 0 1024 1024" version="1.1"
  xmlns="http://www.w3.org/2000/svg" p-id="20942" width="32" height="32">
  <path
    d="M182.930286 1023.853714a36.571429 36.571429 0 0 1-36.571429-36.571428v-658.285715a36.571429 36.571429 0 0 1 36.571429-36.571428 36.571429 36.571429 0 0 1 36.571428 36.571428v621.714286h585.142857v-621.714286a36.571429 36.571429 0 0 1 36.571429-36.571428 36.571429 36.571429 0 0 1 36.571429 36.571428v658.285715a36.571429 36.571429 0 0 1-36.571429 36.571428z m486.107428-193.609143L512 673.28l-156.964571 156.964571a36.571429 36.571429 0 0 1-25.892572 10.752 36.571429 36.571429 0 0 1-25.892571-10.752 36.571429 36.571429 0 0 1 0-51.785142l156.964571-156.964572L303.250286 464.457143a36.571429 36.571429 0 0 1 0-51.785143 36.571429 36.571429 0 0 1 51.785143 0L512 569.709714l157.037714-157.037714a36.571429 36.571429 0 0 1 51.785143 0 36.571429 36.571429 0 0 1 0 51.785143L563.785143 621.494857l157.037714 156.964572a36.571429 36.571429 0 0 1 0 51.785142 36.571429 36.571429 0 0 1-25.892571 10.752 36.571429 36.571429 0 0 1-25.892572-10.678857zM731.428571 219.355429H104.521143a34.304 34.304 0 0 1-31.378286-36.571429 34.230857 34.230857 0 0 1 31.378286-36.571429H292.571429v-146.285714h438.857142v146.285714h188.123429a34.230857 34.230857 0 0 1 31.378286 36.571429 34.304 34.304 0 0 1-31.378286 36.571429z m-365.714285-73.142858h292.571428v-73.142857H365.714286z"
    fill="#6A6A6A" p-id="20943"></path>
</svg>