<?xml version="1.0" standalone="no"?><!DOCTYPE svg PUBLIC "-//W3C//DTD SVG 1.1//EN" "http://www.w3.org/Graphics/SVG/1.1/DTD/svg11.dtd"><svg t="1747386106422" class="icon" viewBox="0 0 1024 1024" version="1.1" xmlns="http://www.w3.org/2000/svg" p-id="34295" xmlns:xlink="http://www.w3.org/1999/xlink" width="200" height="200"><path d="M913.24 654.41H664.17c-13.25 0-24 10.75-24 24v179.14c0 13.25 10.75 24 24 24h249.06c13.25 0 24-10.75 24-24V678.41c0.01-13.25-10.74-24-23.99-24z m-24 179.14H688.17V702.41h201.06v131.14zM691.32 600.33c7.68-14.68 2.01-32.81-12.67-40.49-29.96-15.68-61.94-27.49-94.93-35.2 33.08-11.29 63.4-30.07 88.84-55.51 43.79-43.79 67.9-102 67.9-163.93s-24.11-120.14-67.9-163.93c-43.79-43.79-102-67.9-163.93-67.9-61.92 0-120.14 24.11-163.93 67.9-43.79 43.79-67.9 102-67.9 163.93s24.11 120.14 67.9 163.93c22.24 22.24 48.2 39.39 76.48 50.9a400.52 400.52 0 0 0-87.11 25.72c-48.14 20.36-91.37 49.51-128.49 86.62-37.12 37.12-66.26 80.35-86.62 128.49-21.09 49.86-31.78 102.8-31.78 157.36 0 16.57 13.43 30 30 30s30-13.43 30-30c0-91.95 35.81-178.4 100.83-243.42 65.02-65.02 151.47-100.83 243.43-100.83 55.48 0 110.6 13.5 159.4 39.04 14.67 7.67 32.8 2 40.48-12.68zM336.8 305.2c0-94.75 77.08-171.83 171.83-171.83 94.75 0 171.83 77.08 171.83 171.83 0 94.75-77.08 171.83-171.83 171.83-94.75 0-171.83-77.08-171.83-171.83zM854.41 902.3H723c-13.25 0-24 10.75-24 24s10.75 24 24 24h131.41c13.25 0 24-10.75 24-24s-10.75-24-24-24z" fill="#323333" p-id="34296"></path></svg>