<svg t="1774581312090" class="icon" viewBox="0 0 1024 1024" version="1.1" xmlns="http://www.w3.org/2000/svg" p-id="14625" width="32" height="32"><path d="M165.888 873.984h455.68M621.568 899.584h-455.68c-14.336 0-25.6-11.264-25.6-25.6s11.264-25.6 25.6-25.6h455.168c14.336 0 25.6 11.264 25.6 25.6s-11.264 25.6-25.088 25.6zM315.392 688.64c-22.016 0-42.496-8.704-57.856-24.064l-143.872-143.872c-15.36-15.36-24.064-35.84-24.064-57.856s8.704-42.496 24.064-57.856l12.8-12.8c31.744-31.744 83.968-31.744 115.712 0l143.872 143.872c31.744 31.744 31.744 83.968 0 115.712l-12.8 12.8c-15.36 15.872-36.352 24.064-57.856 24.064zM184.32 419.84c-7.68 0-15.872 3.072-21.504 9.216l-12.8 12.8c-5.632 5.632-9.216 13.312-9.216 21.504s3.072 15.872 9.216 21.504l143.872 143.872c5.632 5.632 13.312 9.216 21.504 9.216s15.872-3.072 21.504-9.216l12.8-12.8c11.776-11.776 11.776-31.232 0-43.52L205.824 428.544C200.192 422.912 192 419.84 184.32 419.84zM634.368 369.664c-22.016 0-42.496-8.704-57.856-24.064l-143.872-143.36c-15.36-15.36-24.064-35.84-24.064-57.856s8.704-42.496 24.064-57.856l12.8-12.8c31.744-31.744 83.968-31.744 115.712 0l143.872 143.872c15.36 15.36 24.064 35.84 24.064 57.856s-8.704 42.496-24.064 57.856l-12.8 12.8c-15.36 14.848-36.352 23.552-57.856 23.552zM503.296 100.864c-7.68 0-15.872 3.072-21.504 9.216L468.992 122.88c-5.632 5.632-9.216 13.312-9.216 21.504s3.072 15.872 9.216 21.504l143.872 143.872c5.632 5.632 13.312 9.216 21.504 9.216s15.872-3.072 21.504-9.216l12.8-12.8c5.632-5.632 9.216-13.312 9.216-21.504s-3.072-15.872-9.216-21.504l-143.872-143.872c-5.632-6.144-13.824-9.216-21.504-9.216z" p-id="14626"></path><path d="M386.048 608.768L175.104 397.824l262.656-262.656 210.944 210.944-262.656 262.656z m-138.24-210.944l138.752 138.752 190.464-190.464-138.752-138.752-190.464 190.464z" p-id="14627"></path><path d="M837.632 895.488c-19.456 0-38.912-7.168-53.248-22.016L416.768 505.856l129.536-129.536 367.616 367.616c29.696 29.696 29.696 77.312 0 107.008l-22.528 22.528c-15.36 14.848-34.816 22.016-53.76 22.016zM488.96 505.856l331.264 331.264c9.728 9.728 25.088 9.728 34.304 0l22.528-22.528c9.728-9.728 9.728-25.088 0-34.304l-331.264-331.264-56.832 56.832z" p-id="14628"></path></svg>